<svg xmlns="http://www.w3.org/2000/svg" viewBox="0 0 512 112" fill="none">
  <defs>
    <linearGradient id="stroke" x1="0" y1="0" x2="512" y2="112" gradientUnits="userSpaceOnUse">
      <stop offset="0" stop-color="#7C3AED"/>
      <stop offset="0.55" stop-color="#A78BFA"/>
      <stop offset="1" stop-color="#22D3EE"/>
    </linearGradient>
    <linearGradient id="ribbonA" x1="0" y1="0" x2="112" y2="112" gradientUnits="userSpaceOnUse">
      <stop offset="0" stop-color="#8B5CF6"/>
      <stop offset="1" stop-color="#C4B5FD"/>
    </linearGradient>
    <linearGradient id="ribbonB" x1="0" y1="0" x2="112" y2="112" gradientUnits="userSpaceOnUse">
      <stop offset="0" stop-color="#A78BFA"/>
      <stop offset="1" stop-color="#22D3EE"/>
    </linearGradient>
    <radialGradient id="glow" cx="0.32" cy="0.22" r="0.85">
      <stop offset="0" stop-color="white" stop-opacity="0.35"/>
      <stop offset="0.55" stop-color="white" stop-opacity="0"/>
    </radialGradient>
  </defs>

  <!-- Mark -->
  <g>
    <rect x="2" y="2" width="108" height="108" rx="26" fill="#0E0E10" stroke="url(#stroke)" stroke-width="2"/>
    <rect x="2" y="2" width="108" height="108" rx="26" fill="url(#glow)"/>

    <g transform="translate(0,0)">
      <path d="M32 22 C 30 22 28 24 28 26 L 28 86 C 28 88 30 90 32 90 L 38 90 C 40 90 42 88 42 86 L 42 26 C 42 24 40 22 38 22 Z" fill="url(#ribbonA)"/>
      <path d="M40 56 C 39 55 39 53.5 40 52.5 L 80 22 C 82 20.5 84.5 20.5 86 22 L 89 24.5 C 91 26 91 28.5 89 30 L 53 56 Z" fill="url(#ribbonB)"/>
      <path d="M53 56 L 89 82 C 91 83.5 91 86 89 87.5 L 86 90 C 84.5 91.5 82 91.5 80 90 L 40 59.5 C 39 58.5 39 57 40 56 Z" fill="url(#ribbonB)"/>
      <circle cx="47" cy="56" r="2.4" fill="white" fill-opacity="0.6"/>
    </g>
  </g>

  <!-- Wordmark -->
  <g transform="translate(132,0)">
    <text x="0" y="62" font-family="Inter, ui-sans-serif, system-ui, sans-serif" font-size="48" font-weight="700" letter-spacing="-1.5" fill="#EDEDEF">Kedex</text>
    <text x="0" y="92" font-family="ui-monospace, SFMono-Regular, monospace" font-size="14" font-weight="500" letter-spacing="2" fill="#71717A" text-transform="uppercase">CODE · AGENT · CORE</text>
  </g>
</svg>
